<mxfile host="app.diagrams.net" modified="2024-03-25T02:46:11.491Z" agent="Mozilla/5.0 (Windows NT 10.0; Win64; x64) AppleWebKit/537.36 (KHTML, like Gecko) Chrome/122.0.0.0 Safari/537.36 OPR/108.0.0.0" etag="zWW1Cj7PnMvniyYQSvGb" version="24.1.0" type="github">
  <diagram id="yPxyJZ8AM_hMuL3Unpa9" name="gitflow">
    <mxGraphModel dx="1066" dy="505" grid="1" gridSize="10" guides="1" tooltips="1" connect="1" arrows="1" fold="1" page="1" pageScale="1" pageWidth="850" pageHeight="1100" math="0" shadow="0">
      <root>
        <mxCell id="0" />
        <mxCell id="1" parent="0" />
        <mxCell id="Go_mqXNjEycGR6E53UV2-177" value="" style="verticalLabelPosition=bottom;shadow=0;dashed=0;align=center;html=1;verticalAlign=top;shape=mxgraph.electrical.logic_gates.logic_gate;operation=and;labelBackgroundColor=none;rounded=1;" vertex="1" parent="1">
          <mxGeometry x="260" y="160" width="100" height="60" as="geometry" />
        </mxCell>
        <mxCell id="Go_mqXNjEycGR6E53UV2-178" value="" style="verticalLabelPosition=bottom;shadow=0;dashed=0;align=center;html=1;verticalAlign=top;shape=mxgraph.electrical.logic_gates.logic_gate;operation=and;labelBackgroundColor=none;rounded=1;" vertex="1" parent="1">
          <mxGeometry x="260" y="240" width="100" height="60" as="geometry" />
        </mxCell>
        <mxCell id="Go_mqXNjEycGR6E53UV2-179" value="" style="verticalLabelPosition=bottom;shadow=0;dashed=0;align=center;html=1;verticalAlign=top;shape=mxgraph.electrical.logic_gates.logic_gate;operation=and;labelBackgroundColor=none;rounded=1;" vertex="1" parent="1">
          <mxGeometry x="260" y="315" width="100" height="60" as="geometry" />
        </mxCell>
        <mxCell id="Go_mqXNjEycGR6E53UV2-180" value="" style="verticalLabelPosition=bottom;shadow=0;dashed=0;align=center;html=1;verticalAlign=top;shape=mxgraph.electrical.logic_gates.logic_gate;operation=and;labelBackgroundColor=none;rounded=1;" vertex="1" parent="1">
          <mxGeometry x="260" y="400" width="100" height="60" as="geometry" />
        </mxCell>
        <mxCell id="Go_mqXNjEycGR6E53UV2-181" value="" style="verticalLabelPosition=bottom;shadow=0;dashed=0;align=center;html=1;verticalAlign=top;shape=mxgraph.electrical.logic_gates.logic_gate;operation=and;labelBackgroundColor=none;rounded=1;" vertex="1" parent="1">
          <mxGeometry x="260" y="480" width="100" height="60" as="geometry" />
        </mxCell>
        <mxCell id="Go_mqXNjEycGR6E53UV2-182" value="" style="verticalLabelPosition=bottom;shadow=0;dashed=0;align=center;html=1;verticalAlign=top;shape=mxgraph.electrical.logic_gates.logic_gate;operation=and;labelBackgroundColor=none;rounded=1;" vertex="1" parent="1">
          <mxGeometry x="260" y="560" width="100" height="60" as="geometry" />
        </mxCell>
        <mxCell id="Go_mqXNjEycGR6E53UV2-183" value="" style="verticalLabelPosition=bottom;shadow=0;dashed=0;align=center;html=1;verticalAlign=top;shape=mxgraph.electrical.logic_gates.logic_gate;operation=and;labelBackgroundColor=none;rounded=1;" vertex="1" parent="1">
          <mxGeometry x="260" y="650" width="100" height="60" as="geometry" />
        </mxCell>
        <mxCell id="Go_mqXNjEycGR6E53UV2-184" value="" style="verticalLabelPosition=bottom;shadow=0;dashed=0;align=center;html=1;verticalAlign=top;shape=mxgraph.electrical.logic_gates.logic_gate;operation=and;labelBackgroundColor=none;rounded=1;" vertex="1" parent="1">
          <mxGeometry x="270" y="780" width="100" height="60" as="geometry" />
        </mxCell>
        <mxCell id="Go_mqXNjEycGR6E53UV2-185" value="" style="verticalLabelPosition=bottom;shadow=0;dashed=0;align=center;html=1;verticalAlign=top;shape=mxgraph.electrical.logic_gates.logic_gate;operation=and;labelBackgroundColor=none;rounded=1;" vertex="1" parent="1">
          <mxGeometry x="270" y="870" width="100" height="60" as="geometry" />
        </mxCell>
        <mxCell id="Go_mqXNjEycGR6E53UV2-191" value="Fever" style="rounded=1;arcSize=10;whiteSpace=wrap;html=1;align=center;labelBackgroundColor=none;" vertex="1" parent="1">
          <mxGeometry x="70" y="170" width="100" height="20" as="geometry" />
        </mxCell>
        <mxCell id="Go_mqXNjEycGR6E53UV2-192" value="Cough" style="whiteSpace=wrap;html=1;rounded=1;arcSize=10;labelBackgroundColor=none;" vertex="1" parent="1">
          <mxGeometry x="70" y="200" width="100" height="20" as="geometry" />
        </mxCell>
        <mxCell id="Go_mqXNjEycGR6E53UV2-195" value="Conjuctivitis" style="rounded=1;arcSize=10;whiteSpace=wrap;html=1;align=center;labelBackgroundColor=none;" vertex="1" parent="1">
          <mxGeometry x="70" y="230" width="100" height="20" as="geometry" />
        </mxCell>
        <mxCell id="Go_mqXNjEycGR6E53UV2-196" value="Runny_nose" style="whiteSpace=wrap;html=1;rounded=1;arcSize=10;labelBackgroundColor=none;" vertex="1" parent="1">
          <mxGeometry x="70" y="260" width="100" height="20" as="geometry" />
        </mxCell>
        <mxCell id="Go_mqXNjEycGR6E53UV2-197" value="Head-ache" style="rounded=1;arcSize=10;whiteSpace=wrap;html=1;align=center;labelBackgroundColor=none;" vertex="1" parent="1">
          <mxGeometry x="70" y="290" width="100" height="20" as="geometry" />
        </mxCell>
        <mxCell id="Go_mqXNjEycGR6E53UV2-198" value="Sneezing" style="whiteSpace=wrap;html=1;rounded=1;arcSize=10;labelBackgroundColor=none;" vertex="1" parent="1">
          <mxGeometry x="70" y="320" width="100" height="20" as="geometry" />
        </mxCell>
        <mxCell id="Go_mqXNjEycGR6E53UV2-199" value="sore-throat" style="rounded=1;arcSize=10;whiteSpace=wrap;html=1;align=center;labelBackgroundColor=none;" vertex="1" parent="1">
          <mxGeometry x="70" y="355" width="100" height="20" as="geometry" />
        </mxCell>
        <mxCell id="Go_mqXNjEycGR6E53UV2-200" value="Body-ache" style="whiteSpace=wrap;html=1;rounded=1;arcSize=10;labelBackgroundColor=none;" vertex="1" parent="1">
          <mxGeometry x="70" y="385" width="100" height="20" as="geometry" />
        </mxCell>
        <mxCell id="Go_mqXNjEycGR6E53UV2-201" value="Chills" style="rounded=1;arcSize=10;whiteSpace=wrap;html=1;align=center;labelBackgroundColor=none;" vertex="1" parent="1">
          <mxGeometry x="70" y="420" width="100" height="20" as="geometry" />
        </mxCell>
        <mxCell id="Go_mqXNjEycGR6E53UV2-202" value="swollen-glands" style="whiteSpace=wrap;html=1;rounded=1;arcSize=10;labelBackgroundColor=none;" vertex="1" parent="1">
          <mxGeometry x="70" y="450" width="100" height="20" as="geometry" />
        </mxCell>
        <mxCell id="Go_mqXNjEycGR6E53UV2-203" value="chiken_pox" style="rounded=1;arcSize=10;whiteSpace=wrap;html=1;align=center;labelBackgroundColor=none;" vertex="1" parent="1">
          <mxGeometry x="70" y="480" width="100" height="20" as="geometry" />
        </mxCell>
        <mxCell id="Go_mqXNjEycGR6E53UV2-204" value="Nasal congestion" style="whiteSpace=wrap;html=1;rounded=1;arcSize=10;labelBackgroundColor=none;" vertex="1" parent="1">
          <mxGeometry x="70" y="510" width="100" height="20" as="geometry" />
        </mxCell>
        <mxCell id="Go_mqXNjEycGR6E53UV2-205" value="vertigo" style="rounded=1;arcSize=10;whiteSpace=wrap;html=1;align=center;labelBackgroundColor=none;" vertex="1" parent="1">
          <mxGeometry x="70" y="540" width="100" height="20" as="geometry" />
        </mxCell>
        <mxCell id="Go_mqXNjEycGR6E53UV2-206" value="Ear_ache" style="whiteSpace=wrap;html=1;rounded=1;arcSize=10;labelBackgroundColor=none;" vertex="1" parent="1">
          <mxGeometry x="70" y="570" width="100" height="20" as="geometry" />
        </mxCell>
        <mxCell id="Go_mqXNjEycGR6E53UV2-207" value="weariness" style="rounded=1;arcSize=10;whiteSpace=wrap;html=1;align=center;labelBackgroundColor=none;" vertex="1" parent="1">
          <mxGeometry x="70" y="600" width="100" height="20" as="geometry" />
        </mxCell>
        <mxCell id="Go_mqXNjEycGR6E53UV2-208" value="sweat" style="whiteSpace=wrap;html=1;rounded=1;arcSize=10;labelBackgroundColor=none;" vertex="1" parent="1">
          <mxGeometry x="70" y="630" width="100" height="20" as="geometry" />
        </mxCell>
        <mxCell id="Go_mqXNjEycGR6E53UV2-209" value="Asphyxia" style="rounded=1;arcSize=10;whiteSpace=wrap;html=1;align=center;labelBackgroundColor=none;" vertex="1" parent="1">
          <mxGeometry x="70" y="660" width="100" height="20" as="geometry" />
        </mxCell>
        <mxCell id="Go_mqXNjEycGR6E53UV2-210" value="Drop-tongue" style="whiteSpace=wrap;html=1;rounded=1;arcSize=10;labelBackgroundColor=none;" vertex="1" parent="1">
          <mxGeometry x="70" y="690" width="100" height="20" as="geometry" />
        </mxCell>
        <mxCell id="Go_mqXNjEycGR6E53UV2-211" value="Hacking Cough" style="rounded=1;arcSize=10;whiteSpace=wrap;html=1;align=center;labelBackgroundColor=none;" vertex="1" parent="1">
          <mxGeometry x="70" y="720" width="100" height="20" as="geometry" />
        </mxCell>
        <mxCell id="Go_mqXNjEycGR6E53UV2-212" value="Dermal-secretion" style="whiteSpace=wrap;html=1;rounded=1;arcSize=10;labelBackgroundColor=none;" vertex="1" parent="1">
          <mxGeometry x="70" y="750" width="100" height="20" as="geometry" />
        </mxCell>
        <mxCell id="Go_mqXNjEycGR6E53UV2-213" value="wheeze" style="rounded=1;arcSize=10;whiteSpace=wrap;html=1;align=center;labelBackgroundColor=none;" vertex="1" parent="1">
          <mxGeometry x="70" y="785" width="100" height="20" as="geometry" />
        </mxCell>
        <mxCell id="Go_mqXNjEycGR6E53UV2-214" value="Dyspenea" style="whiteSpace=wrap;html=1;rounded=1;arcSize=10;labelBackgroundColor=none;" vertex="1" parent="1">
          <mxGeometry x="80" y="900" width="100" height="20" as="geometry" />
        </mxCell>
        <mxCell id="Go_mqXNjEycGR6E53UV2-219" value="Measles" style="rounded=1;arcSize=10;whiteSpace=wrap;html=1;align=center;labelBackgroundColor=none;" vertex="1" parent="1">
          <mxGeometry x="510" y="180" width="100" height="40" as="geometry" />
        </mxCell>
        <mxCell id="Go_mqXNjEycGR6E53UV2-221" value="" style="edgeStyle=none;orthogonalLoop=1;jettySize=auto;html=1;rounded=1;" edge="1" parent="1">
          <mxGeometry width="80" relative="1" as="geometry">
            <mxPoint x="420" y="690" as="sourcePoint" />
            <mxPoint x="500" y="690" as="targetPoint" />
            <Array as="points" />
          </mxGeometry>
        </mxCell>
        <mxCell id="Go_mqXNjEycGR6E53UV2-222" value="Text" style="edgeLabel;html=1;align=center;verticalAlign=middle;resizable=0;points=[];rounded=1;" vertex="1" connectable="0" parent="Go_mqXNjEycGR6E53UV2-221">
          <mxGeometry x="-0.175" y="2" relative="1" as="geometry">
            <mxPoint as="offset" />
          </mxGeometry>
        </mxCell>
      </root>
    </mxGraphModel>
  </diagram>
</mxfile>
